# xmcd
# 
# Track frame offsets:
#     150
#     17929
#     37284
#     55671
#     76645
#     94466
#     113554
#     131876
# 
# Disc length: 2042
# 
# Revision: 3
# Processed by: cddbd v1.5.2PL0 Copyright (c) Steve Scherf et al.
# Submitted via: BonkEnc v1.0.8
# 
DISCID=6607f808
DTITLE=岸田教団&The明星ロケッツ - 幻想事変
DYEAR=2007
DGENRE=東方アレンジ
TTITLE0=明星ロケット
TTITLE1=SuperSonicSpeedStar
TTITLE2=歌舞伎町の魔女
TTITLE3=夢は時空を超えて
TTITLE4=LotusLove
TTITLE5=YU-MU
TTITLE6=ネクロファンタジア
TTITLE7=Ancienttemple
EXTD=
EXTT0=
EXTT1=
EXTT2=
EXTT3=
EXTT4=
EXTT5=
EXTT6=
EXTT7=
PLAYORDER=
